ffmpeg started on 2016-11-27 at 07:53:16
Report written to "Output/NVENCh264/results/ffmpeg/crowd_run_2160p50llhq5000k.log"
Command line:
Tools/ffmpeg/ffmpeg -benchmark -y -i Input/y4m/crowd_run_2160p50.y4m -c:v h264_nvenc -preset llhq -b:v 5000k -an Output/NVENCh264/encoded/crowd_run_2160p50llhq5000k.mkv
ffmpeg version N-82227-gdb23fde Copyright (c) 2000-2016 the FFmpeg developers
  built with gcc 5.4.0 (Ubuntu 5.4.0-6ubuntu1~16.04.2) 20160609
  configuration: --prefix=/home/jaroslav/ffmpeg_build --pkg-config-flags=--static --extra-cflags=-I/home/jaroslav/ffmpeg_build/include --extra-ldflags=-L/home/jaroslav/ffmpeg_build/lib --bindir=/home/jaroslav/bin --enable-gpl --enable-libass --enable-libfdk-aac --enable-libfreetype --enable-libmp3lame --enable-libopus --enable-libtheora --enable-libvorbis --enable-libvpx --enable-libx264 --enable-libx265 --enable-nvenc --enable-libmfx --enable-libxvid --enable-libgsm --enable-libopencore-amrnb --enable-version3 --enable-nonfree
  libavutil      55. 35.100 / 55. 35.100
  libavcodec     57. 66.101 / 57. 66.101
  libavformat    57. 57.100 / 57. 57.100
  libavdevice    57.  2.100 / 57.  2.100
  libavfilter     6. 66.100 /  6. 66.100
  libswscale      4.  3.100 /  4.  3.100
  libswresample   2.  4.100 /  2.  4.100
  libpostproc    54.  2.100 / 54.  2.100
Input #0, yuv4mpegpipe, from 'Input/y4m/crowd_run_2160p50.y4m':
  Duration: 00:00:10.00, start: 0.000000, bitrate: 4976642 kb/s
    Stream #0:0: Video: rawvideo (I420 / 0x30323449), yuv420p(progressive), 3840x2160, SAR 1:1 DAR 16:9, 50 fps, 50 tbr, 50 tbn, 50 tbc
[h264_nvenc @ 0x3c0a1c0] The variable bitrate rate-control requires the 'qmin' and/or 'qmax' option set.
Output #0, matroska, to 'Output/NVENCh264/encoded/crowd_run_2160p50llhq5000k.mkv':
  Metadata:
    encoder         : Lavf57.57.100
    Stream #0:0: Video: h264 (h264_nvenc) (Main) (H264 / 0x34363248), yuv420p, 3840x2160 [SAR 1:1 DAR 16:9], q=-1--1, 5000 kb/s, 50 fps, 1k tbn, 50 tbc
    Metadata:
      encoder         : Lavc57.66.101 h264_nvenc
    Side data:
      cpb: bitrate max/min/avg: 0/0/5000000 buffer size: 10000000 vbv_delay: -1
Stream mapping:
  Stream #0:0 -> #0:0 (rawvideo (native) -> h264 (h264_nvenc))
Press [q] to stop, [?] for help
frame=   13 fps=0.0 q=0.0 size=       0kB time=00:00:00.00 bitrate=N/A speed=   0x    frame=   29 fps= 29 q=0.0 size=       0kB time=00:00:00.00 bitrate=N/A speed=   0x    frame=   46 fps= 30 q=49.0 size=       1kB time=00:00:00.30 bitrate=  19.9kbits/s speed=0.195x    frame=   64 fps= 31 q=48.0 size=       1kB time=00:00:00.66 bitrate=   9.0kbits/s speed=0.321x    frame=   82 fps= 32 q=48.0 size=       1kB time=00:00:01.02 bitrate=   5.9kbits/s speed=0.396x    frame=  100 fps= 32 q=49.0 size=       1kB time=00:00:01.38 bitrate=   4.3kbits/s speed=0.446x    frame=  118 fps= 33 q=49.0 size=       1kB time=00:00:01.74 bitrate=   3.4kbits/s speed=0.481x    frame=  131 fps= 17 q=49.0 size=       1kB time=00:00:02.00 bitrate=   3.0kbits/s speed=0.254x    frame=  132 fps= 11 q=49.0 size=       1kB time=00:00:02.02 bitrate=   3.0kbits/s speed=0.173x    frame=  137 fps= 11 q=49.0 size=       1kB time=00:00:02.12 bitrate=   2.8kbits/s speed=0.174x    frame=  154 fps= 12 q=49.0 size=       1kB time=00:00:02.46 bitrate=   2.4kbits/s speed=0.194x    frame=  171 fps= 13 q=49.0 size=       1kB time=00:00:02.80 bitrate=   2.1kbits/s speed=0.212x    frame=  177 fps= 13 q=49.0 size=       1kB time=00:00:02.92 bitrate=   2.0kbits/s speed=0.213x    frame=  194 fps= 14 q=49.0 size=       1kB time=00:00:03.26 bitrate=   1.8kbits/s speed=0.229x    frame=  211 fps= 14 q=49.0 size=       1kB time=00:00:03.60 bitrate=   1.7kbits/s speed=0.244x    frame=  228 fps= 15 q=49.0 size=       1kB time=00:00:03.94 bitrate=   1.5kbits/s speed=0.258x    frame=  246 fps= 16 q=49.0 size=       1kB time=00:00:04.30 bitrate=   1.4kbits/s speed=0.273x    frame=  264 fps= 16 q=49.0 size=       1kB time=00:00:04.66 bitrate=   1.3kbits/s speed=0.286x    frame=  282 fps= 17 q=49.0 size=    3213kB time=00:00:05.02 bitrate=5242.9kbits/s speed=0.298x    frame=  299 fps= 17 q=49.0 size=    3213kB time=00:00:05.36 bitrate=4910.4kbits/s speed=0.303x    frame=  317 fps= 17 q=49.0 size=    3213kB time=00:00:05.72 bitrate=4601.4kbits/s speed=0.315x    frame=  335 fps= 18 q=49.0 size=    3213kB time=00:00:06.08 bitrate=4329.0kbits/s speed=0.325x    frame=  353 fps= 18 q=49.0 size=    3213kB time=00:00:06.44 bitrate=4087.0kbits/s speed=0.335x    frame=  365 fps= 18 q=49.0 size=    3213kB time=00:00:06.68 bitrate=3940.2kbits/s speed=0.337x    frame=  383 fps= 19 q=49.0 size=    3213kB time=00:00:07.04 bitrate=3738.7kbits/s speed=0.346x    frame=  401 fps= 19 q=49.0 size=    3213kB time=00:00:07.40 bitrate=3556.9kbits/s speed=0.355x    frame=  419 fps= 20 q=49.0 size=    3213kB time=00:00:07.76 bitrate=3391.9kbits/s speed=0.363x    frame=  437 fps= 20 q=49.0 size=    3213kB time=00:00:08.12 bitrate=3241.5kbits/s speed=0.371x    frame=  449 fps= 20 q=49.0 size=    3213kB time=00:00:08.36 bitrate=3148.5kbits/s speed=0.371x    frame=  467 fps= 20 q=49.0 size=    3213kB time=00:00:08.72 bitrate=3018.5kbits/s speed=0.378x    frame=  485 fps= 21 q=49.0 size=    3213kB time=00:00:09.08 bitrate=2898.8kbits/s speed=0.385x    frame=  494 fps= 21 q=49.0 size=    3213kB time=00:00:09.26 bitrate=2842.5kbits/s speed=0.384x    frame=  500 fps= 21 q=49.0 Lsize=    6593kB time=00:00:09.98 bitrate=5411.3kbits/s speed=0.41x    
video:6589kB audio:0kB subtitle:0kB other streams:0kB global headers:0kB muxing overhead: 0.064489%
bench: utime=1.060s
bench: maxrss=1409228kB
